<svg xmlns="http://www.w3.org/2000/svg" viewBox="0 0 408.18 433.73"><defs><style>.cls-1{fill:#fff;}</style></defs><title>Tech Africa White</title><g id="Layer_2" data-name="Layer 2"><g id="Layer_5" data-name="Layer 5"><rect class="cls-1" x="105.9" y="15.78" width="14.95" height="131.9"/><polygon class="cls-1" points="181.13 346.9 181.13 331.93 196.09 331.93 196.09 372.06 181.13 346.9"/><rect class="cls-1" x="197.9" y="175.3" width="22.17" height="14.95"/><path class="cls-1" d="M149.12,172.57a20.44,20.44,0,1,1,20.44-20.44A20.46,20.46,0,0,1,149.12,172.57Zm0-25.93a5.49,5.49,0,1,0,5.49,5.49A5.49,5.49,0,0,0,149.12,146.64Z"/><path class="cls-1" d="M184.72,236.9a17.6,17.6,0,1,1,17.59-17.6A17.62,17.62,0,0,1,184.72,236.9Zm0-25.94a8.34,8.34,0,1,0,8.34,8.34A8.35,8.35,0,0,0,184.72,211Z"/><path class="cls-1" d="M190.6,192.94H56.85l26.67-42L66.79,134.22l10.57-10.57,25.21,25.21L84.06,178h91.59V120.1a27,27,0,0,1,26.89-26.93l0,15a12,12,0,0,0-12,12Z"/><polygon class="cls-1" points="306.62 66.02 306.62 122.6 291.67 122.6 291.67 40.87 306.62 66.02"/><polygon class="cls-1" points="90.59 34.62 90.59 50.12 75.64 50.12 75.64 9.47 90.59 34.62"/><polygon class="cls-1" points="264.05 176.36 264.05 93.85 249.1 93.85 249.1 201.51 264.05 176.36"/><path class="cls-1" d="M302.22,151.29A12.78,12.78,0,1,1,315,138.52,12.79,12.79,0,0,1,302.22,151.29Zm0-16.2a3.43,3.43,0,1,0,3.43,3.43A3.43,3.43,0,0,0,302.22,135.09Z"/><circle class="cls-1" cx="70.46" cy="152.13" r="4.54"/><circle class="cls-1" cx="306.62" cy="187.28" r="4.4"/><path class="cls-1" d="M306.62,181.12a6.16,6.16,0,1,1-6.16,6.16,6.16,6.16,0,0,1,6.16-6.16m0-2.64a8.8,8.8,0,1,0,8.8,8.8,8.81,8.81,0,0,0-8.8-8.8Z"/><polygon class="cls-1" points="25.15 112.03 40.65 112.03 40.65 97.08 0 97.08 25.15 112.03"/><path class="cls-1" d="M233.39,189.93a7.16,7.16,0,1,1,7.15-7.16A7.17,7.17,0,0,1,233.39,189.93Zm0-9.08a1.93,1.93,0,1,0,1.92,1.92A1.92,1.92,0,0,0,233.39,180.85Z"/><rect class="cls-1" x="226.2" y="207.84" width="14.95" height="70.31"/><polygon class="cls-1" points="170.55 14.97 170.55 0 155.6 0 155.6 40.12 170.55 14.97"/><rect class="cls-1" x="210.77" y="93.11" width="22.17" height="14.95"/><path class="cls-1" d="M204.08,326.75a20.44,20.44,0,1,1,20.44-20.44A20.46,20.46,0,0,1,204.08,326.75Zm0-25.93a5.49,5.49,0,1,0,5.49,5.49A5.49,5.49,0,0,0,204.08,300.82Z"/><path class="cls-1" d="M281.41,332l-15,0a27,27,0,0,1,26.93-26.9h38.44V207l-29.13,18.5-25.21-25.2,10.57-10.58,16.74,16.74,42-26.68V320H293.39A12,12,0,0,0,281.41,332Z"/><polygon class="cls-1" points="211.56 408.57 211.56 352 226.51 352 226.51 433.73 211.56 408.57"/><polygon class="cls-1" points="196.6 252.56 196.6 276.73 211.55 276.73 211.55 227.41 196.6 252.56"/><path class="cls-1" d="M233.72,128.89a7.16,7.16,0,1,1,7.15-7.16A7.17,7.17,0,0,1,233.72,128.89Zm0-9.08a1.93,1.93,0,1,0,1.92,1.92A1.93,1.93,0,0,0,233.72,119.81Z"/><circle class="cls-1" cx="112.56" cy="165.1" r="4.54"/><circle class="cls-1" cx="204.08" cy="122.6" r="4.4"/><path class="cls-1" d="M204.08,116.44a6.16,6.16,0,1,1-6.16,6.16,6.16,6.16,0,0,1,6.16-6.16m0-2.64a8.8,8.8,0,1,0,8.79,8.8,8.81,8.81,0,0,0-8.79-8.8Z"/><polygon class="cls-1" points="222.84 144.48 238.34 144.48 238.34 159.43 197.68 159.43 222.84 144.48"/><rect class="cls-1" x="234.41" y="298.83" width="22.17" height="14.95"/><rect class="cls-1" x="39.76" y="52.25" width="14.95" height="131.9"/><polygon class="cls-1" points="300.1 283.24 300.1 298.21 315.06 298.21 315.06 258.09 300.1 283.24"/><rect class="cls-1" x="170.05" y="35.38" width="22.17" height="14.95"/><path class="cls-1" d="M83.12,100.61a20.44,20.44,0,1,1,20.44-20.44A20.46,20.46,0,0,1,83.12,100.61Zm0-25.93a5.49,5.49,0,1,0,5.49,5.49A5.49,5.49,0,0,0,83.12,74.68Z"/><path class="cls-1" d="M367.53,195.83a17.6,17.6,0,1,1,17.59-17.59A17.61,17.61,0,0,1,367.53,195.83Zm0-25.93a8.34,8.34,0,1,0,8.34,8.34A8.35,8.35,0,0,0,367.53,169.9Z"/><polygon class="cls-1" points="271.53 269.62 271.53 213.04 256.57 213.04 256.57 294.77 271.53 269.62"/><polygon class="cls-1" points="239.05 54.95 239.05 70.45 224.1 70.45 224.1 29.79 239.05 54.95"/><polygon class="cls-1" points="285.34 140.71 285.34 58.2 270.38 58.2 270.38 165.87 285.34 140.71"/><path class="cls-1" d="M209.1,65.36a7.16,7.16,0,1,1,7.16-7.16A7.16,7.16,0,0,1,209.1,65.36Zm0-9.08A1.92,1.92,0,1,0,211,58.2,1.92,1.92,0,0,0,209.1,56.28Z"/><circle class="cls-1" cx="237.93" cy="80.05" r="4.54"/><circle class="cls-1" cx="290.63" cy="262.7" r="4.4"/><path class="cls-1" d="M290.63,256.54a6.16,6.16,0,1,1-6.16,6.16,6.16,6.16,0,0,1,6.16-6.16m0-2.64a8.8,8.8,0,1,0,8.79,8.8,8.81,8.81,0,0,0-8.79-8.8Z"/><polygon class="cls-1" points="303.97 250.47 319.47 250.47 319.47 235.52 278.82 235.52 303.97 250.47"/><path class="cls-1" d="M274.28,300.17a7.16,7.16,0,1,1,7.15-7.15A7.15,7.15,0,0,1,274.28,300.17Zm0-9.07A1.92,1.92,0,1,0,276.2,293,1.92,1.92,0,0,0,274.28,291.1Z"/><polygon class="cls-1" points="252.97 401.6 252.97 386.63 238.01 386.63 238.01 426.75 252.97 401.6"/><rect class="cls-1" x="324.98" y="153.08" width="22.17" height="14.95"/><path class="cls-1" d="M255.58,382.16A20.44,20.44,0,1,1,276,361.72,20.46,20.46,0,0,1,255.58,382.16Zm0-25.93a5.49,5.49,0,1,0,5.49,5.49A5.49,5.49,0,0,0,255.58,356.23Z"/><path class="cls-1" d="M181.14,93.17a17.59,17.59,0,1,1,17.59-17.59A17.61,17.61,0,0,1,181.14,93.17Zm0-25.93a8.34,8.34,0,1,0,8.33,8.34A8.35,8.35,0,0,0,181.14,67.24Z"/><polygon class="cls-1" points="128.68 56.58 128.68 0 143.63 0 143.63 81.73 128.68 56.58"/><polygon class="cls-1" points="141.64 94.34 141.64 118.51 156.59 118.51 156.59 69.19 141.64 94.34"/><path class="cls-1" d="M131.61,111.71a7.16,7.16,0,1,1,7.16-7.15A7.16,7.16,0,0,1,131.61,111.71Zm0-9.07a1.92,1.92,0,1,0,1.93,1.92A1.92,1.92,0,0,0,131.61,102.64Z"/><circle class="cls-1" cx="283.15" cy="374.69" r="4.54"/><circle class="cls-1" cx="26.49" cy="133.15" r="4.4"/><path class="cls-1" d="M26.49,127a6.16,6.16,0,1,1-6.16,6.15A6.15,6.15,0,0,1,26.49,127m0-2.64a8.8,8.8,0,1,0,8.79,8.79,8.8,8.8,0,0,0-8.79-8.79Z"/><polygon class="cls-1" points="383.03 140.2 367.53 140.2 367.53 155.16 408.19 155.16 383.03 140.2"/><rect class="cls-1" x="213.02" y="328.16" width="22.17" height="14.95"/><circle class="cls-1" cx="264.03" cy="47.4" r="4.54"/><polygon class="cls-1" points="264.03 74.02 264.03 89.52 249.08 89.52 249.08 48.86 264.03 74.02"/><rect class="cls-1" x="291.14" y="153.08" width="22.17" height="14.95"/><rect class="cls-1" x="283.03" y="337.04" width="22.17" height="14.95"/><circle class="cls-1" cx="336.06" cy="137.55" r="4.4"/><path class="cls-1" d="M336.06,131.4a6.16,6.16,0,1,1-6.16,6.15,6.15,6.15,0,0,1,6.16-6.15m0-2.64a8.8,8.8,0,1,0,8.8,8.79,8.8,8.8,0,0,0-8.8-8.79Z"/><rect class="cls-1" x="311.95" y="107.07" width="22.17" height="14.95"/><polygon class="cls-1" points="382.48 353.58 382.48 369.08 367.53 369.08 367.53 328.43 382.48 353.58"/><circle class="cls-1" cx="380.58" cy="327.48" r="4.4"/><path class="cls-1" d="M380.58,321.33a6.16,6.16,0,1,1-6.16,6.15,6.15,6.15,0,0,1,6.16-6.15m0-2.64a8.8,8.8,0,1,0,8.8,8.79,8.8,8.8,0,0,0-8.8-8.79Z"/><polygon class="cls-1" points="379.26 300.74 379.26 285.24 394.22 285.24 394.22 325.89 379.26 300.74"/></g></g></svg>